<svg width="42" height="53" viewBox="0 0 42 53" fill="none" xmlns="http://www.w3.org/2000/svg">
<path d="M10.4995 41.9969H0V52.4961H10.4995V41.9969Z" fill="#FE7B17"/>
<path d="M20.9991 41.9969H10.4995V52.4961H20.9991V41.9969Z" fill="#FE7B17"/>
<path d="M41.9982 31.4977H31.4987V41.9969H41.9982V31.4977Z" fill="#FE7B17"/>
<path d="M20.9991 20.9985H10.4995V31.4977H20.9991V20.9985Z" fill="#FE7B17"/>
<path d="M41.9982 20.9985H31.4987V31.4977H41.9982V20.9985Z" fill="#FE7B17"/>
<path d="M20.9991 10.4993H10.4995V20.9985H20.9991V10.4993Z" fill="#FE7B17"/>
<path d="M31.4986 0H20.999V10.4992H31.4986V0Z" fill="#FE7B17"/>
<path d="M41.9982 0H31.4987V10.4992H41.9982V0Z" fill="#FE7B17"/>
<path d="M31.4986 31.4977H20.999V41.9969H31.4986V31.4977Z" fill="#FE7B17"/>
<path d="M31.4986 20.9985H20.999V31.4977H31.4986V20.9985Z" fill="#FE7B17"/>
<path d="M10.4995 20.9985H0V31.4977H10.4995V20.9985Z" fill="#FE7B17"/>
<path d="M10.4995 10.4993H0V20.9985H10.4995V10.4993Z" fill="#FE7B17"/>
</svg>
