<svg width="1024" height="302" viewBox="0 0 1024 302" fill="none" xmlns="http://www.w3.org/2000/svg">
<path d="M60.4018 241.6H0V302H60.4018V241.6Z" fill="#FE7B17"/>
<path d="M120.804 241.6H60.4023V302H120.804V241.6Z" fill="#FE7B17"/>
<path d="M241.607 181.2H181.205V241.6H241.607V181.2Z" fill="#FE7B17"/>
<path d="M120.804 120.8H60.4023V181.2H120.804V120.8Z" fill="#FE7B17"/>
<path d="M241.607 120.8H181.205V181.2H241.607V120.8Z" fill="#FE7B17"/>
<path d="M120.804 60.4001H60.4023V120.8H120.804V60.4001Z" fill="#FE7B17"/>
<path d="M60.4018 241.6H0V302H60.4018V241.6Z" fill="#FE7B17"/>
<path d="M120.804 241.6H60.4023V302H120.804V241.6Z" fill="#FE7B17"/>
<path d="M181.206 0H120.804V60.4H181.206V0Z" fill="#FE7B17"/>
<path d="M241.607 0H181.205V60.4H241.607V0Z" fill="#FE7B17"/>
<path d="M181.206 181.2H120.804V241.6H181.206V181.2Z" fill="#FE7B17"/>
<path d="M181.206 120.8H120.804V181.2H181.206V120.8Z" fill="#FE7B17"/>
<path d="M241.607 181.2H181.205V241.6H241.607V181.2Z" fill="#FE7B17"/>
<path d="M241.607 120.8H181.205V181.2H241.607V120.8Z" fill="#FE7B17"/>
<path d="M60.4018 120.8H0V181.2H60.4018V120.8Z" fill="#FE7B17"/>
<path d="M60.4018 60.4001H0V120.8H60.4018V60.4001Z" fill="#FE7B17"/>
<path d="M120.804 120.8H60.4023V181.2H120.804V120.8Z" fill="#FE7B17"/>
<path d="M120.804 60.4001H60.4023V120.8H120.804V60.4001Z" fill="#FE7B17"/>
<path d="M332.21 178.863H370.241C372.921 201.91 386.039 211.035 413.368 211.035C433.186 211.035 450.588 204.064 450.588 186.363C450.588 167.604 432.374 163.844 403.176 157.138C368.901 149.355 337.551 140.249 337.551 100.313C337.551 62.512 368.354 42.9407 410.933 42.9407C453.513 42.9407 481.919 64.1177 484.863 102.731H447.643C445.492 83.4245 430.506 73.7711 410.688 73.7711C389.795 73.7711 376.13 82.6122 376.13 96.2894C376.13 111.837 389.53 116.39 417.917 122.567C457.288 131.144 489.43 140.533 489.43 181.81C489.43 220.688 458.1 242.394 414.972 242.394C363.012 242.394 333.55 219.347 332.21 178.863Z" fill="#FAFCFC"/>
<path d="M596.559 222.029H595.747C586.367 234.63 575.665 241.865 556.376 241.865C525.838 241.865 508.7 222.294 508.7 192.276V100.597H544.863V186.117C544.863 202.194 552.092 211.054 567.625 211.054C584.763 211.054 595.219 198.189 595.219 179.959V100.616H631.646V238.144H596.559V222.029Z" fill="#FAFCFC"/>
<path d="M690.289 122.567H691.101C699.405 107.02 708.786 98.972 724.848 98.972C728.868 98.972 731.284 99.2365 733.416 100.049V131.956H732.605C708.767 129.538 691.629 142.138 691.629 171.099V238.125H655.202V100.578H690.289V122.567Z" fill="#FAFCFC"/>
<path d="M741.454 242.13H777.617C780.561 250.706 788.337 257.413 805.211 257.413C825.84 257.413 835.749 247.495 835.749 228.736V213.717H834.937C826.897 222.823 816.459 229.794 799.039 229.794C768.501 229.794 738.51 205.67 738.51 164.109C738.51 122.548 763.159 96.8184 797.963 96.8184C815.101 96.8184 827.69 103.525 835.994 115.048H836.523V100.578H871.609V227.64C871.609 246.947 865.456 260.076 855.264 269.465C843.751 280.195 826.066 285.013 805.72 285.013C768.218 285.013 745.191 268.936 741.435 242.111L741.454 242.13ZM837.598 163.315C837.598 143.215 826.878 126.062 804.927 126.062C786.45 126.062 774.125 140.533 774.125 163.599C774.125 186.665 786.45 200.588 805.192 200.588C828.218 200.588 837.598 183.699 837.598 163.315Z" fill="#FAFCFC"/>
<path d="M888.484 169.209C888.484 128.461 916.078 96.8373 956.242 96.8373C1000.43 96.8373 1024 130.615 1024 179.675H924.364C927.044 200.852 938.822 213.982 959.451 213.982C973.644 213.982 981.949 207.54 985.969 197.093H1021.87C1016.77 221.481 995.085 242.13 959.734 242.13C914.21 242.13 888.484 210.222 888.484 169.209ZM985.969 154.474C984.893 137.057 973.38 124.985 956.771 124.985C937.481 124.985 928.12 136.509 924.892 154.474H985.969Z" fill="#FAFCFC"/>
<path d="M1013.8 0H846.4C840.878 0 836.4 4.47715 836.4 10V50.4C836.4 55.9229 840.878 60.4 846.4 60.4H1013.8C1019.33 60.4 1023.8 55.9229 1023.8 50.4V10C1023.8 4.47715 1019.33 0 1013.8 0Z" fill="#FE7B17"/>
<path d="M855.4 46V12.4H878.04C885.72 12.4 889.64 15.28 889.64 21C889.64 25 887.72 27.6 883.68 28.88C888.24 30.08 890.52 32.88 890.52 37.28C890.52 42.56 887.28 46 879.16 46H855.4ZM865.96 37.84H876.12C878.88 37.84 879.96 36.84 879.96 35.12C879.96 33.28 878.92 32.36 876.12 32.36H865.96V37.84ZM865.96 26.04H875.04C878.04 26.04 879.08 25.12 879.08 23.28C879.08 21.52 877.96 20.56 875.04 20.56H865.96V26.04ZM894.111 46V12.4H925.831V20.8H904.671V25.12H922.231V32.56H904.671V37.6H925.831V46H894.111ZM941.816 46V21.04H927.736V12.4H966.416V21.04H952.376V46H941.816ZM960.812 46L974.373 12.4H991.533L1005.09 46H993.813L991.013 38.72H974.853L972.053 46H960.812ZM977.853 30.96H988.013L984.133 20.96H981.733L977.853 30.96Z" fill="white"/>
</svg>
