<svg width="178" height="53" viewBox="0 0 178 53" fill="none" xmlns="http://www.w3.org/2000/svg">
<path d="M10.4995 41.9969H0V52.4961H10.4995V41.9969Z" fill="#FE7B17"/>
<path d="M20.9991 41.9969H10.4995V52.4961H20.9991V41.9969Z" fill="#FE7B17"/>
<path d="M41.9982 31.4977H31.4987V41.9969H41.9982V31.4977Z" fill="#FE7B17"/>
<path d="M20.9991 20.9985H10.4995V31.4977H20.9991V20.9985Z" fill="#FE7B17"/>
<path d="M41.9982 20.9985H31.4987V31.4977H41.9982V20.9985Z" fill="#FE7B17"/>
<path d="M20.9991 10.4993H10.4995V20.9985H20.9991V10.4993Z" fill="#FE7B17"/>
<path d="M10.4995 41.9969H0V52.4961H10.4995V41.9969Z" fill="#FE7B17"/>
<path d="M20.9991 41.9969H10.4995V52.4962H20.9991V41.9969Z" fill="#FE7B17"/>
<path d="M31.4986 0H20.999V10.4992H31.4986V0Z" fill="#FE7B17"/>
<path d="M41.9982 0H31.4987V10.4992H41.9982V0Z" fill="#FE7B17"/>
<path d="M31.4986 31.4977H20.999V41.9969H31.4986V31.4977Z" fill="#FE7B17"/>
<path d="M31.4986 20.9985H20.999V31.4977H31.4986V20.9985Z" fill="#FE7B17"/>
<path d="M41.9982 31.4977H31.4987V41.9969H41.9982V31.4977Z" fill="#FE7B17"/>
<path d="M41.9982 20.9985H31.4987V31.4977H41.9982V20.9985Z" fill="#FE7B17"/>
<path d="M10.4995 20.9985H0V31.4977H10.4995V20.9985Z" fill="#FE7B17"/>
<path d="M10.4995 10.4993H0V20.9985H10.4995V10.4993Z" fill="#FE7B17"/>
<path d="M20.9991 20.9985H10.4995V31.4977H20.9991V20.9985Z" fill="#FE7B17"/>
<path d="M20.9991 10.4992H10.4995V20.9984H20.9991V10.4992Z" fill="#FE7B17"/>
<path d="M57.7474 31.0914H64.3583C64.8242 35.0977 67.1044 36.6838 71.855 36.6838C75.2999 36.6838 78.3248 35.472 78.3248 32.3951C78.3248 29.1342 75.1588 28.4808 70.0834 27.315C64.1254 25.9621 58.6759 24.3793 58.6759 17.4373C58.6759 10.8663 64.0302 7.46429 71.4318 7.46429C78.8333 7.46429 83.771 11.1455 84.2828 17.8576H77.813C77.439 14.5015 74.834 12.8235 71.3891 12.8235C67.7573 12.8235 65.3819 14.3603 65.3819 16.7378C65.3819 19.4404 67.7113 20.2318 72.6457 21.3056C79.4895 22.7965 85.0768 24.4285 85.0768 31.6037C85.0768 38.3618 79.6306 42.1349 72.1339 42.1349C63.1018 42.1349 57.9804 38.1286 57.7474 31.0914Z" fill="#FAFCFC"/>
<path d="M103.699 38.5949H103.558C101.927 40.7852 100.067 42.0429 96.7138 42.0429C91.4054 42.0429 88.4264 38.6409 88.4264 33.4229V17.4865H94.7125V32.3524C94.7125 35.1469 95.9691 36.687 98.6692 36.687C101.648 36.687 103.466 34.4508 103.466 31.2819V17.4898H109.798V41.396H103.699V38.5949Z" fill="#FAFCFC"/>
<path d="M119.992 21.3056H120.133C121.576 18.603 123.207 17.2041 125.999 17.2041C126.698 17.2041 127.118 17.2501 127.488 17.3913V22.9377H127.347C123.204 22.5173 120.225 24.7077 120.225 29.7418V41.3928H113.893V17.4832H119.992V21.3056Z" fill="#FAFCFC"/>
<path d="M128.886 42.0889H135.172C135.683 43.5798 137.035 44.7455 139.968 44.7455C143.554 44.7455 145.277 43.0215 145.277 39.7607V37.1501H145.136C143.738 38.7329 141.924 39.9446 138.895 39.9446C133.587 39.9446 128.374 35.7511 128.374 28.5267C128.374 21.3023 132.659 16.8298 138.708 16.8298C141.687 16.8298 143.876 17.9955 145.319 19.9986H145.411V17.4832H151.51V39.5702C151.51 42.9263 150.441 45.2086 148.669 46.8406C146.668 48.7058 143.594 49.5432 140.057 49.5432C133.538 49.5432 129.535 46.7487 128.882 42.0856L128.886 42.0889ZM145.598 28.3888C145.598 24.8948 143.735 21.9131 139.919 21.9131C136.707 21.9131 134.565 24.4285 134.565 28.4381C134.565 32.4476 136.707 34.8678 139.965 34.8678C143.968 34.8678 145.598 31.9321 145.598 28.3888Z" fill="#FAFCFC"/>
<path d="M154.444 29.4134C154.444 22.3302 159.24 16.833 166.222 16.833C173.902 16.833 178 22.7045 178 31.2326H160.68C161.146 34.9138 163.194 37.196 166.78 37.196C169.247 37.196 170.69 36.0762 171.389 34.2603H177.629C176.743 38.4997 172.974 42.0889 166.829 42.0889C158.915 42.0889 154.444 36.5425 154.444 29.4134ZM171.389 26.852C171.202 23.8243 169.201 21.7259 166.314 21.7259C162.961 21.7259 161.333 23.7291 160.772 26.852H171.389Z" fill="#FAFCFC"/>
</svg>
